<svg xmlns="http://www.w3.org/2000/svg" xmlns:xlink="http://www.w3.org/1999/xlink" fill="none" stroke="none" stroke-linecap="square" stroke-miterlimit="10" version="1.1" viewBox="0 0 256 256"><clipPath id="p.0"><path d="m0 0l256.0 0l0 256.0l-256.0 0l0 -256.0z" clip-rule="nonzero"/></clipPath><g clip-path="url(#p.0)"><path fill="#000" fill-opacity="0" fill-rule="evenodd" d="m0 0l256.0 0l0 256.0l-256.0 0z"/><g filter="url(#shadowFilter-p.1)"><use transform="matrix(1.0 0.0 0.0 1.0 0.0 2.0)" xlink:href="#p.1"/></g><defs><filter id="shadowFilter-p.1" filterUnits="userSpaceOnUse"><feGaussianBlur in="SourceAlpha" result="blur" stdDeviation="2"/><feComponentTransfer color-interpolation-filters="sRGB" in="blur"><feFuncR intercept="0" slope="0" type="linear"/><feFuncG intercept="0" slope="0" type="linear"/><feFuncB intercept="0" slope="0" type="linear"/><feFuncA intercept="0" slope=".5" type="linear"/></feComponentTransfer></filter></defs><g id="p.1"><path fill="#fff9e7" fill-rule="evenodd" d="m14.804438 58.097942l0 0c0 -13.99633 11.346268 -25.342598 25.342596 -25.342598l12.389305 0l0 0l56.597855 0l106.71906 0c6.7212677 0 13.167267 2.6700172 17.919922 7.422676c4.752655 4.752659 7.4226685 11.198647 7.4226685 17.919922l0 63.356487l0 0l0 38.013893l0 0c0 13.996323 -11.346268 25.34259 -25.34259 25.34259l-106.71906 0l-28.298172 19.006958l-28.299683 -19.006958l-12.389305 0l0 0c-13.996328 0 -25.342596 -11.346268 -25.342596 -25.34259l0 0l0 -38.013893l0 0z"/><path fill-rule="evenodd" stroke="#595959" stroke-linecap="butt" stroke-linejoin="round" stroke-width="1" d="m14.804438 58.097942l0 0c0 -13.99633 11.346268 -25.342598 25.342596 -25.342598l12.389305 0l0 0l56.597855 0l106.71906 0c6.7212677 0 13.167267 2.6700172 17.919922 7.422676c4.752655 4.752659 7.4226685 11.198647 7.4226685 17.919922l0 63.356487l0 0l0 38.013893l0 0c0 13.996323 -11.346268 25.34259 -25.34259 25.34259l-106.71906 0l-28.298172 19.006958l-28.299683 -19.006958l-12.389305 0l0 0c-13.996328 0 -25.342596 -11.346268 -25.342596 -25.34259l0 0l0 -38.013893l0 0z"/></g><path fill="#000" fill-opacity="0" fill-rule="evenodd" d="m48.515854 87.73054c-5.052582 0 -9.14851 -0.6826248 -9.14851 -1.5246887l0 -18.792938c0 -0.8420639 -4.0959244 -1.5246964 -9.148506 -1.5246964l0 0c5.052582 0 9.148506 -0.6826248 9.148506 -1.5246887l0 -18.792938l0 0c0 -0.8420639 4.095928 -1.5246925 9.14851 -1.5246925z"/><path fill="#000" fill-opacity="0" fill-rule="evenodd" d="m48.515854 87.73054c-5.052582 0 -9.14851 -0.6826248 -9.14851 -1.5246887l0 -18.792938c0 -0.8420639 -4.0959244 -1.5246964 -9.148506 -1.5246964l0 0c5.052582 0 9.148506 -0.6826248 9.148506 -1.5246887l0 -18.792938l0 0c0 -0.8420639 4.095928 -1.5246925 9.14851 -1.5246925"/><path fill-rule="evenodd" stroke="#595959" stroke-linecap="butt" stroke-linejoin="round" stroke-width="2" d="m48.515854 87.73054c-5.052582 0 -9.14851 -0.6826248 -9.14851 -1.5246887l0 -18.792938c0 -0.8420639 -4.0959244 -1.5246964 -9.148506 -1.5246964l0 0c5.052582 0 9.148506 -0.6826248 9.148506 -1.5246887l0 -18.792938l0 0c0 -0.8420639 4.095928 -1.5246925 9.14851 -1.5246925"/><path fill="#000" fill-opacity="0" fill-rule="evenodd" d="m140.04643 130.86491c5.052582 0 9.148514 0.68263245 9.148514 1.5246887l0 18.792953c0 0.8420563 4.095932 1.5246887 9.148499 1.5246887l0 0c-5.0525665 0 -9.148499 0.6826172 -9.148499 1.5246887l0 18.792938l0 0c0 0.8420563 -4.095932 1.5246887 -9.148514 1.5246887z"/><path fill="#000" fill-opacity="0" fill-rule="evenodd" d="m140.04643 130.86491c5.052582 0 9.148514 0.68263245 9.148514 1.5246887l0 18.792953c0 0.8420563 4.095932 1.5246887 9.148499 1.5246887l0 0c-5.0525665 0 -9.148499 0.6826172 -9.148499 1.5246887l0 18.792938l0 0c0 0.8420563 -4.095932 1.5246887 -9.148514 1.5246887"/><path fill-rule="evenodd" stroke="#595959" stroke-linecap="butt" stroke-linejoin="round" stroke-width="2" d="m140.04643 130.86491c5.052582 0 9.148514 0.68263245 9.148514 1.5246887l0 18.792953c0 0.8420563 4.095932 1.5246887 9.148499 1.5246887l0 0c-5.0525665 0 -9.148499 0.6826172 -9.148499 1.5246887l0 18.792938l0 0c0 0.8420563 -4.095932 1.5246887 -9.148514 1.5246887"/><path fill="#93c47d" fill-rule="evenodd" d="m62.974438 56.049747l61.172108 0l0 20.787655l-61.172108 0z"/><path fill="#93c47d" fill-rule="evenodd" d="m36.96264 99.18158l49.125816 0l0 20.787651l-49.125816 0z"/><path fill="#93c47d" fill-rule="evenodd" d="m36.96264 142.31342l95.36901 0l0 20.787659l-95.36901 0z"/><path fill="#93c47d" fill-rule="evenodd" d="m132.33923 56.049747l33.711426 0l0 20.787655l-33.711426 0z"/><path fill="#93c47d" fill-rule="evenodd" d="m95.24834 99.18158l86.20534 0l0 20.787651l-86.20534 0z"/><path fill="#93c47d" fill-rule="evenodd" d="m189.17984 99.18158l33.71141 0l0 20.787651l-33.71141 0z"/></g></svg>