<svg xmlns="http://www.w3.org/2000/svg" xmlns:xlink="http://www.w3.org/1999/xlink" fill="none" stroke="none" stroke-linecap="square" stroke-miterlimit="10" version="1.1" viewBox="0 0 194.102 184.541"><clipPath id="p.0"><path d="m0 0l194.10236 0l0 184.54068l-194.10236 0l0 -184.54068z" clip-rule="nonzero"/></clipPath><g clip-path="url(#p.0)"><path fill="#000" fill-opacity="0" fill-rule="evenodd" d="m0 0l194.10236 0l0 184.54068l-194.10236 0z"/><path fill="#f1c232" fill-rule="evenodd" d="m82.948814 21.098461l0 0c0 -8.924661 6.139496 -16.159527 13.712944 -16.159527l0 0c3.6369019 0 7.12484 1.7025166 9.696518 4.733016c2.5716782 3.0304995 4.016426 7.1407375 4.016426 11.426512l0 0c0 8.92466 -6.139496 16.159527 -13.712944 16.159527l0 0c-7.573448 0 -13.712944 -7.234867 -13.712944 -16.159527z"/><path fill-rule="evenodd" stroke="#595959" stroke-linecap="butt" stroke-linejoin="round" stroke-width="1" d="m82.948814 21.098461l0 0c0 -8.924661 6.139496 -16.159527 13.712944 -16.159527l0 0c3.6369019 0 7.12484 1.7025166 9.696518 4.733016c2.5716782 3.0304995 4.016426 7.1407375 4.016426 11.426512l0 0c0 8.92466 -6.139496 16.159527 -13.712944 16.159527l0 0c-7.573448 0 -13.712944 -7.234867 -13.712944 -16.159527z"/><path fill="#f1c232" fill-rule="evenodd" d="m82.531105 41.26263l28.261307 0l6.061203 6.061203l0 30.305286l0 0l-40.383713 0l0 0l0 -30.305286z"/><path fill-rule="evenodd" stroke="#595959" stroke-linecap="butt" stroke-linejoin="round" stroke-width="1" d="m82.531105 41.26263l28.261307 0l6.061203 6.061203l0 30.305286l0 0l-40.383713 0l0 0l0 -30.305286z"/><path fill="#f1c232" fill-rule="evenodd" d="m105.13921 139.7733l7.717308 -30.869232l41.591904 0l7.7173157 30.869232z"/><path fill-rule="evenodd" stroke="#595959" stroke-linecap="butt" stroke-linejoin="round" stroke-width="1" d="m105.13921 139.7733l7.717308 -30.869232l41.591904 0l7.7173157 30.869232z"/><path fill="#f1c232" fill-rule="evenodd" d="m150.79517 85.300606l-5.0517426 20.206963l-24.178879 0l-5.0517426 -20.206963z"/><path fill-rule="evenodd" stroke="#595959" stroke-linecap="butt" stroke-linejoin="round" stroke-width="1" d="m150.79517 85.300606l-5.0517426 20.206963l-24.178879 0l-5.0517426 -20.206963z"/><path fill="#000" fill-opacity="0" fill-rule="evenodd" d="m133.65399 85.300606l0 -10.269608"/><path fill-rule="evenodd" stroke="#595959" stroke-linecap="butt" stroke-linejoin="round" stroke-width="1" d="m133.65399 85.300606l0 -10.269608"/><path fill="#f1c232" fill-rule="evenodd" d="m130.52603 71.05197l0 0c0 -2.1936264 1.399643 -3.9719162 3.1261902 -3.9719162l0 0c0.8291168 0 1.6242676 0.41846466 2.210556 1.1633453c0.5862732 0.7448807 0.91563416 1.7551575 0.91563416 2.8085709l0 0c0 2.193634 -1.399643 3.9719238 -3.1261902 3.9719238l0 0c-1.7265472 0 -3.1261902 -1.7782898 -3.1261902 -3.9719238z"/><path fill-rule="evenodd" stroke="#595959" stroke-linecap="butt" stroke-linejoin="round" stroke-width="1" d="m130.52603 71.05197l0 0c0 -2.1936264 1.399643 -3.9719162 3.1261902 -3.9719162l0 0c0.8291168 0 1.6242676 0.41846466 2.210556 1.1633453c0.5862732 0.7448807 0.91563416 1.7551575 0.91563416 2.8085709l0 0c0 2.193634 -1.399643 3.9719238 -3.1261902 3.9719238l0 0c-1.7265472 0 -3.1261902 -1.7782898 -3.1261902 -3.9719238z"/><path fill="#f1c232" fill-rule="evenodd" d="m31.6591 96.83201l30.463715 -19.200485l29.32182 19.200485z"/><path fill-rule="evenodd" stroke="#595959" stroke-linecap="butt" stroke-linejoin="round" stroke-width="1" d="m31.6591 96.83201l30.463715 -19.200485l29.32182 19.200485z"/><path fill="#f1c232" fill-rule="evenodd" d="m32.829323 126.05979l59.78553 0l0 13.699989l-59.78553 0z"/><path fill-rule="evenodd" stroke="#595959" stroke-linecap="butt" stroke-linejoin="round" stroke-width="1" d="m32.829323 126.05979l59.78553 0l0 13.699989l-59.78553 0z"/><path fill="#f1c232" fill-rule="evenodd" d="m38.621117 101.84566l9.069698 0l0 19.200485l-9.069698 0z"/><path fill-rule="evenodd" stroke="#595959" stroke-linecap="butt" stroke-linejoin="round" stroke-width="1" d="m38.621117 101.84566l9.069698 0l0 19.200485l-9.069698 0z"/><path fill="#f1c232" fill-rule="evenodd" d="m51.6652 101.84566l9.069698 0l0 19.200485l-9.069698 0z"/><path fill-rule="evenodd" stroke="#595959" stroke-linecap="butt" stroke-linejoin="round" stroke-width="1" d="m51.6652 101.84566l9.069698 0l0 19.200485l-9.069698 0z"/><path fill="#f1c232" fill-rule="evenodd" d="m64.70928 101.84566l9.0696945 0l0 19.200485l-9.0696945 0z"/><path fill-rule="evenodd" stroke="#595959" stroke-linecap="butt" stroke-linejoin="round" stroke-width="1" d="m64.70928 101.84566l9.0696945 0l0 19.200485l-9.0696945 0z"/><path fill="#f1c232" fill-rule="evenodd" d="m77.753365 101.84566l9.0696945 0l0 19.200485l-9.0696945 0z"/><path fill-rule="evenodd" stroke="#595959" stroke-linecap="butt" stroke-linejoin="round" stroke-width="1" d="m77.753365 101.84566l9.0696945 0l0 19.200485l-9.0696945 0z"/><path fill="#f1c232" fill-rule="evenodd" d="m22.994547 91.35489l0 0c-10.242508 -10.242508 -6.192335 -30.899063 9.046316 -46.137714c15.238647 -15.238647 35.89521 -19.288822 46.13772 -9.046314l0 0c-12.35099 0.67619705 -26.008884 7.4631805 -36.86487 18.319164c-10.855986 10.855984 -17.64297 24.513882 -18.319166 36.864864z"/><path fill-rule="evenodd" stroke="#595959" stroke-linecap="butt" stroke-linejoin="round" stroke-width="1" d="m22.994547 91.35489l0 0c-10.242508 -10.242508 -6.192335 -30.899063 9.046316 -46.137714c15.238647 -15.238647 35.89521 -19.288822 46.13772 -9.046314l0 0c-12.35099 0.67619705 -26.008884 7.4631805 -36.86487 18.319164c-10.855986 10.855984 -17.64297 24.513882 -18.319166 36.864864z"/><path fill="#f1c232" fill-rule="evenodd" d="m135.68558 150.04005l0 0c0 14.479645 -17.471863 26.217712 -39.024498 26.217712c-21.552643 0 -39.024506 -11.738068 -39.024506 -26.217712l0 0c9.212433 8.252213 23.670448 13.108856 39.024506 13.108856c15.354057 0 29.812065 -4.8566437 39.024498 -13.108856z"/><path fill-rule="evenodd" stroke="#595959" stroke-linecap="butt" stroke-linejoin="round" stroke-width="1" d="m135.68558 150.04005l0 0c0 14.479645 -17.471863 26.217712 -39.024498 26.217712c-21.552643 0 -39.024506 -11.738068 -39.024506 -26.217712l0 0c9.212433 8.252213 23.670448 13.108856 39.024506 13.108856c15.354057 0 29.812065 -4.8566437 39.024498 -13.108856z"/><path fill="#f1c232" fill-rule="evenodd" d="m172.03725 91.35489l0 0c10.242508 -10.242508 6.192337 -30.899063 -9.046326 -46.137714c-15.238647 -15.238647 -35.895203 -19.288822 -46.13771 -9.046314l0 0c12.350983 0.67619705 26.00888 7.4631805 36.86487 18.319164c10.855988 10.855984 17.642975 24.513882 18.319168 36.864864z"/><path fill-rule="evenodd" stroke="#595959" stroke-linecap="butt" stroke-linejoin="round" stroke-width="1" d="m172.03725 91.35489l0 0c10.242508 -10.242508 6.192337 -30.899063 -9.046326 -46.137714c-15.238647 -15.238647 -35.895203 -19.288822 -46.13771 -9.046314l0 0c12.350983 0.67619705 26.00888 7.4631805 36.86487 18.319164c10.855988 10.855984 17.642975 24.513882 18.319168 36.864864z"/></g></svg>